<svg width="78" height="20" viewBox="0 0 78 20" fill="none" xmlns="http://www.w3.org/2000/svg">
<path fill-rule="evenodd" clip-rule="evenodd" d="M10.0879 1.72414L11.0119 1.72414L12.1668 1.72414L13.2061 0H9.04821L10.0879 1.72414ZM25.3333 15.8621V1.37931H30.4267L32.9422 14H33.3165L35.832 1.37931H40.9254V15.8621H38.1535V3.38621H37.807L35.3954 15.8621H30.8633L28.4517 3.38621H28.1052V15.8621H25.3333ZM44.8913 15.8397C45.4719 16.0845 46.1286 16.2069 46.8612 16.2069C47.5801 16.2069 48.1469 16.1049 48.5616 15.9009C48.9763 15.6969 49.2804 15.4657 49.474 15.2073C49.6675 14.9353 49.7919 14.7177 49.8472 14.5545H50.2412V14.5749C50.2412 14.9829 50.4071 15.3093 50.7389 15.5541C51.0706 15.7989 51.4923 15.9213 52.0038 15.9213H53.7456V13.7997H52.9161C52.5291 13.7997 52.3355 13.5957 52.3355 13.1877V9.41366C52.3355 8.14886 51.9415 7.18325 51.1536 6.51685C50.3656 5.85044 49.2943 5.51724 47.9395 5.51724C47.0548 5.51724 46.3014 5.65324 45.6793 5.92524C45.071 6.18365 44.5803 6.53045 44.207 6.96565C43.8476 7.38725 43.585 7.85645 43.4191 8.37326L45.8244 9.16886C45.9212 8.70646 46.1286 8.33246 46.4465 8.04685C46.7645 7.74765 47.2483 7.59805 47.898 7.59805C48.5616 7.59805 49.0454 7.75445 49.3496 8.06726C49.6537 8.36646 49.8057 8.75406 49.8057 9.23006V9.80126H46.9857C46.2115 9.80126 45.5203 9.92366 44.9121 10.1685C44.3176 10.3997 43.8476 10.7533 43.502 11.2293C43.1702 11.6917 43.0043 12.2697 43.0043 12.9633C43.0043 13.6569 43.1702 14.2485 43.502 14.7381C43.8476 15.2141 44.3107 15.5813 44.8913 15.8397ZM49.1007 13.5345C48.6445 13.9289 48.0501 14.1261 47.3174 14.1261C46.7645 14.1261 46.3428 14.0105 46.0525 13.7793C45.7622 13.5481 45.6171 13.2489 45.6171 12.8817C45.6171 12.5145 45.7553 12.2289 46.0318 12.0249C46.3083 11.8209 46.6884 11.7189 47.1723 11.7189H49.8057V11.9229C49.8057 12.5893 49.5707 13.1265 49.1007 13.5345ZM54.7851 10.9024V10.576C54.7851 9.5153 54.9977 8.61098 55.4229 7.86304C55.8482 7.10151 56.4106 6.52356 57.1103 6.12919C57.8236 5.72122 58.5987 5.51724 59.4355 5.51724C60.3683 5.51724 61.0748 5.68043 61.5549 6.0068C62.035 6.33317 62.3848 6.67314 62.6043 7.02671H62.9747V5.72122H65.5263V17.7154C65.5263 18.4089 65.3205 18.9597 64.909 19.3677C64.4974 19.7892 63.9487 20 63.2628 20H56.5802V17.7562H62.3574C62.7415 17.7562 62.9336 17.5522 62.9336 17.1442V14.5129H62.5632C62.426 14.7305 62.234 14.9548 61.987 15.186C61.7401 15.4036 61.4109 15.5872 60.9993 15.7368C60.5878 15.8864 60.0665 15.9611 59.4355 15.9611C58.5987 15.9611 57.8236 15.764 57.1103 15.3696C56.4106 14.9616 55.8482 14.3837 55.4229 13.6357C54.9977 12.8742 54.7851 11.9631 54.7851 10.9024ZM60.1762 13.7173C60.9719 13.7173 61.6372 13.4658 62.1722 12.9626C62.7072 12.4594 62.9747 11.7523 62.9747 10.8412V10.6372C62.9747 9.71248 62.7072 9.00534 62.1722 8.51578C61.6509 8.01263 60.9856 7.76105 60.1762 7.76105C59.3806 7.76105 58.7153 8.01263 58.1803 8.51578C57.6453 9.00534 57.3778 9.71248 57.3778 10.6372V10.8412C57.3778 11.7523 57.6453 12.4594 58.1803 12.9626C58.7153 13.4658 59.3806 13.7173 60.1762 13.7173ZM72.6293 16.2069C71.6103 16.2069 70.6946 16.0029 69.8821 15.5949C69.0696 15.1869 68.4293 14.5953 67.9611 13.8201C67.4928 13.0449 67.2587 12.1133 67.2587 11.0253V10.6989C67.2587 9.61086 67.4928 8.67926 67.9611 7.90405C68.4293 7.12885 69.0696 6.53725 69.8821 6.12924C70.6946 5.72124 71.6103 5.51724 72.6293 5.51724C73.6484 5.51724 74.5641 5.72124 75.3766 6.12924C76.1891 6.53725 76.8294 7.12885 77.2977 7.90405C77.7659 8.67926 78 9.61086 78 10.6989V11.0253C78 12.1133 77.7659 13.0449 77.2977 13.8201C76.8294 14.5953 76.1891 15.1869 75.3766 15.5949C74.5641 16.0029 73.6484 16.2069 72.6293 16.2069ZM72.6293 13.9221C73.4281 13.9221 74.0891 13.6705 74.6123 13.1673C75.1356 12.6505 75.3973 11.9161 75.3973 10.9641V10.7601C75.3973 9.80806 75.1356 9.08046 74.6123 8.57726C74.1028 8.06046 73.4418 7.80205 72.6293 7.80205C71.8306 7.80205 71.1696 8.06046 70.6464 8.57726C70.1231 9.08046 69.8614 9.80806 69.8614 10.7601V10.9641C69.8614 11.9161 70.1231 12.6505 70.6464 13.1673C71.1696 13.6705 71.8306 13.9221 72.6293 13.9221ZM20.8289 10L12.1666 10L12.1666 7.58621L20.8289 7.58621V10ZM10.0877 7.58621V10H5.2368L5.2368 7.5862L10.0877 7.58621ZM16.3245 5.51724L12.1666 5.51724V3.10345L16.3245 3.10345V5.51724ZM10.0877 5.51724V3.10345L0.732422 3.10345L0.732422 5.51724L10.0877 5.51724ZM10.0877 14.4828L10.0877 12.069L2.11839 12.069L2.11839 14.4828L10.0877 14.4828ZM12.1666 12.069L12.1666 14.4828L17.7105 14.4828V12.069L12.1666 12.069ZM11.2425 15.8621L12.1664 15.8621L13.2061 17.5862H9.04821L10.0875 15.8621L11.2425 15.8621Z" fill="#D1D1C9"/>
</svg>
